<svg t="1651626736370" class="icon" viewBox="0 0 1024 1024" version="1.1" xmlns="http://www.w3.org/2000/svg" p-id="2581" width="48" height="48"><path d="M296 456h432v432H296z" fill="#6DD0FC" p-id="2582"></path><path d="M296 456h395.2v387.36H296z" fill="#A4ECFF" p-id="2583"></path><path d="M728 896H296a8 8 0 0 1-8-8V456a8 8 0 0 1 8-8h432a8 8 0 0 1 8 8v432a8 8 0 0 1-8 8z m-424-16h416V464H304z" fill="#2FB1EA" p-id="2584"></path><path d="M728 464a8 8 0 0 1-6.16-13.12l200-240a8 8 0 0 1 12.28 10.24l-200 240a8 8 0 0 1-6.12 2.88zM296 464a8 8 0 0 1-6.16-2.88l-200-240a8 8 0 1 1 12.28-10.24l200 240A8 8 0 0 1 296 464z" fill="#2FB1EA" p-id="2585"></path><path d="M429.2 456v185.16l27.6-28.12 27.6 28.12 27.6-28.12 27.6 28.12 27.6-28.12 27.6 28.12V456h-165.6z" fill="#52E355" p-id="2586"></path><path d="M429.2 456v146.6l27.6-28.08 27.6 28.08 27.6-28.08 27.6 28.08 27.6-28.08 27.6 28.08V456h-165.6z" fill="#90FC95" p-id="2587"></path><path d="M594.8 649.16a8 8 0 0 1-5.72-2.4l-21.88-22.28-21.88 22.28a8.24 8.24 0 0 1-11.4 0l-21.92-22.28-21.88 22.28a8.24 8.24 0 0 1-11.4 0l-21.88-22.28-21.88 22.28a8 8 0 0 1-13.72-5.6V456a8 8 0 0 1 8-8h165.6a8 8 0 0 1 8 8v185.16a8 8 0 0 1-8 8z m-82.8-44a8 8 0 0 1 5.72 2.4l21.88 22.28 21.88-22.28a8.24 8.24 0 0 1 11.4 0l13.88 14.16V464H437.2v157.6l13.88-14.16a8.24 8.24 0 0 1 11.4 0l21.88 22.28 21.88-22.28a8 8 0 0 1 5.76-2.4z" fill="#2FB1EA" p-id="2588"></path><path d="M693.16 136L594.8 284.16h51l-53.72 116.92L728 252.92h-69.32L693.16 136z" fill="#FFE76E" p-id="2589"></path><path d="M592 409.08a8 8 0 0 1-7.28-11.32L633.32 292h-38.52a8 8 0 0 1-6.8-12.28l98.36-148a8 8 0 0 1 14.32 6.68l-31.48 106.64H728a8 8 0 0 1 5.88 13.4l-136 148a8 8 0 0 1-5.88 2.64zM609.72 276h36a8 8 0 0 1 7.28 11.32l-32.44 70.64 89.2-97.24h-51.08a8 8 0 0 1-7.68-10.28l19.48-66z" fill="#2FB1EA" p-id="2590"></path><path d="M330.84 136l98.36 148.16H378.2l53.72 116.92L296 252.92h69.32L330.84 136z" fill="#FFE76E" p-id="2591"></path><path d="M432 409.08a8 8 0 0 1-5.88-2.6l-136-148A8 8 0 0 1 296 244.92h58.6l-31.44-106.64a8 8 0 0 1 14.32-6.68l98.36 148a8 8 0 0 1-6.64 12.4h-38.52l48.48 105.56a8 8 0 0 1-7.28 11.32z m-117.72-148l89.2 97.24-32.56-70.84A8 8 0 0 1 378.2 276h36L353.52 184.64l19.48 66a8 8 0 0 1-7.68 10.28z" fill="#2FB1EA" p-id="2592"></path><path d="M878 646m-20 0a20 20 0 1 0 40 0 20 20 0 1 0-40 0Z" fill="#D4FFD4" p-id="2593"></path><path d="M558 50m-16 0a16 16 0 1 0 32 0 16 16 0 1 0-32 0Z" fill="#D4FFD4" p-id="2594"></path><path d="M238 602m-12 0a12 12 0 1 0 24 0 12 12 0 1 0-24 0Z" fill="#D4FFD4" p-id="2595"></path><path d="M306 982m-8 0a8 8 0 1 0 16 0 8 8 0 1 0-16 0Z" fill="#D4FFD4" p-id="2596"></path><path d="M150 686m-4 0a4 4 0 1 0 8 0 4 4 0 1 0-8 0Z" fill="#D4FFD4" p-id="2597"></path><path d="M166 570m-20 0a20 20 0 1 0 40 0 20 20 0 1 0-40 0Z" fill="#FFBDBD" p-id="2598"></path><path d="M242 758m-16 0a16 16 0 1 0 32 0 16 16 0 1 0-32 0Z" fill="#FFBDBD" p-id="2599"></path><path d="M890 498m-12 0a12 12 0 1 0 24 0 12 12 0 1 0-24 0Z" fill="#FFBDBD" p-id="2600"></path><path d="M942 742m-8 0a8 8 0 1 0 16 0 8 8 0 1 0-16 0Z" fill="#FFBDBD" p-id="2601"></path><path d="M730 978m-4 0a4 4 0 1 0 8 0 4 4 0 1 0-8 0Z" fill="#FFBDBD" p-id="2602"></path><path d="M806 238m-20 0a20 20 0 1 0 40 0 20 20 0 1 0-40 0Z" fill="#BBF1FF" p-id="2603"></path><path d="M150 486m-16 0a16 16 0 1 0 32 0 16 16 0 1 0-32 0Z" fill="#BBF1FF" p-id="2604"></path><path d="M878 862m-12 0a12 12 0 1 0 24 0 12 12 0 1 0-24 0Z" fill="#BBF1FF" p-id="2605"></path><path d="M610 206m-8 0a8 8 0 1 0 16 0 8 8 0 1 0-16 0Z" fill="#BBF1FF" p-id="2606"></path><path d="M238 134m-4 0a4 4 0 1 0 8 0 4 4 0 1 0-8 0Z" fill="#BBF1FF" p-id="2607"></path><path d="M950 418m-20 0a20 20 0 1 0 40 0 20 20 0 1 0-40 0Z" fill="#FFF4C5" p-id="2608"></path><path d="M70 282m-16 0a16 16 0 1 0 32 0 16 16 0 1 0-32 0Z" fill="#FFF4C5" p-id="2609"></path><path d="M270 198m-12 0a12 12 0 1 0 24 0 12 12 0 1 0-24 0Z" fill="#FFF4C5" p-id="2610"></path><path d="M902 214m-8 0a8 8 0 1 0 16 0 8 8 0 1 0-16 0Z" fill="#FFF4C5" p-id="2611"></path><path d="M546 970m-4 0a4 4 0 1 0 8 0 4 4 0 1 0-8 0Z" fill="#FFF4C5" p-id="2612"></path></svg>
